<svg width="490" height="301" viewBox="0 0 490 301" fill="none" xmlns="http://www.w3.org/2000/svg">
<g clip-path="url(#clip0_501_3)">
<g clip-path="url(#clip1_501_3)">
<g clip-path="url(#clip2_501_3)">
<g clip-path="url(#clip3_501_3)">
<g clip-path="url(#clip4_501_3)">
<g clip-path="url(#clip5_501_3)">
<g clip-path="url(#clip6_501_3)">
<mask id="path-1-inside-1_501_3" fill="white">
<path d="M2.78688 245.85C2.09672 245.85 1.50213 245.7 1.00309 245.401C0.493443 245.093 0.238617 244.588 0.238617 243.887C0.238617 243.559 0.307632 243.083 0.445663 242.456C0.573076 241.821 0.822593 240.731 1.19421 239.189H1.75165C2.60106 239.376 3.26467 239.53 3.74247 239.652C4.22027 239.764 4.7777 239.82 5.41477 239.82C6.47654 239.82 7.39498 239.61 8.17007 239.189C8.93455 238.768 9.51852 237.871 9.922 236.497C10.3149 235.113 10.5113 233.019 10.5113 230.214V191.441L3.90174 188.566V187.445H27.1546V188.566L20.5451 191.441V216.682C20.5451 220.235 20.1734 223.53 19.4302 226.568C18.6869 229.607 17.7048 232.294 16.4838 234.631C15.2627 236.969 13.9355 238.838 12.5021 240.241C10.4316 242.251 8.70627 243.69 7.32596 244.56C5.94565 245.42 4.43263 245.85 2.78688 245.85ZM43.7979 234.421C41.2496 234.421 39.0836 233.743 37.2998 232.388C35.5267 231.032 34.6666 229.116 34.7197 226.638C34.7728 224.208 35.7019 222.207 37.5069 220.637C39.3119 219.075 42.6565 217.781 47.5407 216.752L55.0262 215.14V210.512C55.0262 208.783 54.3626 207.366 53.0353 206.263C51.7081 205.169 50.1155 204.623 48.2574 204.623C46.3993 204.623 45.0986 205.006 44.3553 205.772C43.6121 206.548 43.2405 207.661 43.2405 209.11V211.844L42.8423 212.125H38.0643C37.268 212.125 36.7106 211.985 36.392 211.704C36.0735 211.424 35.9142 210.863 35.9142 210.021C35.9142 207.824 37.5069 205.885 40.6922 204.202C42.3911 203.267 44.074 202.528 45.741 201.986C47.4186 201.453 49.1864 201.187 51.0445 201.187C53.3804 201.187 55.5571 201.467 57.5744 202.028C59.5918 202.589 61.211 203.477 62.432 204.693C63.6531 205.908 64.2636 207.544 64.2636 209.601V228.742C65.0069 229.49 66.3606 229.864 68.3249 229.864H70.9528L71.1917 230.074V230.775C70.5546 231.71 69.5725 232.551 68.2453 233.299C66.918 234.047 65.2192 234.421 63.1487 234.421C61.1314 234.421 59.4962 234.01 58.2433 233.187C57.0011 232.374 56.1145 231.266 55.5836 229.864H55.0262C53.6459 231.173 52.0001 232.257 50.0889 233.117C48.1777 233.986 46.0807 234.421 43.7979 234.421ZM43.4794 224.886C43.4794 226.381 43.9678 227.489 44.9446 228.209C45.9321 228.938 47.3018 229.303 49.0537 229.303C50.0624 229.303 51.0286 229.209 51.9523 229.022C52.8867 228.835 53.9113 228.532 55.0262 228.111V217.804C51.7347 218.365 49.266 218.982 47.6203 219.655C45.9745 220.337 44.8703 221.099 44.3076 221.941C43.7554 222.782 43.4794 223.764 43.4794 224.886ZM92.1352 234.421C88.7375 234.421 85.7645 233.79 83.2163 232.528C80.668 231.266 78.6878 229.499 77.2756 227.227C75.8741 224.965 75.1733 222.315 75.1733 219.276C75.1733 215.724 75.9962 212.592 77.642 209.881C79.2877 207.17 81.5546 205.043 84.4426 203.501C87.3413 201.958 90.6752 201.187 94.4445 201.187C96.7804 201.187 98.9677 201.5 101.006 202.126C103.056 202.762 104.584 203.594 105.593 204.623C106.443 205.511 106.867 206.212 106.867 206.726C106.867 207.38 106.522 207.941 105.832 208.409L102.408 211.003H101.85L99.0633 207.708C98.1607 206.632 97.2051 205.791 96.1965 205.183C95.1878 204.576 93.8871 204.272 92.2944 204.272C89.64 204.272 87.6067 205.324 86.1946 207.427C84.793 209.531 84.0922 212.382 84.0922 215.981C84.0922 218.084 84.501 220.038 85.3186 221.843C86.1468 223.638 87.474 225.082 89.3002 226.176C91.1371 227.279 93.5686 227.83 96.5946 227.83C98.0811 227.83 99.6738 227.643 101.373 227.269C103.071 226.896 104.876 226.264 106.788 225.376H107.027V226.358C105.752 228.602 103.825 230.504 101.245 232.065C98.6757 233.636 95.639 234.421 92.1352 234.421ZM132.891 233.72H113.142V232.598L118.319 230.354V189.127L113.381 185.692V184.991L126.76 181.134H127.556V215.56L139.819 205.955V205.534L135.917 203.01V201.888H152.083V203.01L146.986 205.464L135.201 213.527L150.411 230.214L155.507 232.598V233.72H142.049L139.342 230.074L127.556 216.963V230.495L132.891 232.598V233.72ZM184.334 233.72H161.081V232.598L167.691 229.723V191.441L161.081 188.566V187.445H184.334V188.566L177.725 191.441V229.723L184.334 232.598V233.72ZM210.932 233.72H191.82V232.598L196.996 230.354V209.18L192.059 206.025V205.324L204.641 201.187H205.437L206.154 206.375H206.552C208.516 204.693 210.412 203.407 212.238 202.519C214.075 201.631 216.161 201.187 218.497 201.187C221.682 201.187 224.294 201.911 226.333 203.36C228.382 204.81 229.407 206.913 229.407 209.671V230.354L234.583 232.598V233.72H215.471V232.598L220.169 230.354V212.686C220.169 210.909 219.559 209.54 218.338 208.577C217.117 207.623 215.524 207.147 213.56 207.147C212.339 207.147 211.038 207.334 209.658 207.708C208.277 208.082 207.136 208.596 206.233 209.25V230.354L210.932 232.598V233.72ZM268.586 234.421C263.065 234.421 258.271 233.44 254.204 231.476C250.148 229.513 247.006 226.811 244.776 223.371C242.546 219.94 241.431 216.051 241.431 211.704C241.431 208.292 242.201 205.076 243.741 202.056C245.28 199.046 247.377 196.396 250.032 194.105C252.686 191.815 255.712 190.015 259.11 188.707C262.507 187.398 266.091 186.743 269.86 186.743C272.568 186.743 274.861 186.893 276.741 187.192C278.631 187.501 280.303 187.898 281.757 188.384C283.223 188.88 284.699 189.454 286.185 190.109L286.902 202.87H285.468L279.098 193.054C277.452 192.072 275.965 191.357 274.638 190.908C273.311 190.469 271.771 190.249 270.02 190.249C266.569 190.249 263.463 191.09 260.702 192.773C257.942 194.456 255.765 196.816 254.173 199.855C252.58 202.893 251.784 206.399 251.784 210.372C251.784 214.626 252.553 218.271 254.093 221.31C255.632 224.348 257.714 226.685 260.336 228.321C262.969 229.957 265.905 230.775 269.144 230.775C271.533 230.775 273.587 230.495 275.307 229.934C277.038 229.373 278.646 228.695 280.133 227.9L286.265 219.276H287.618L286.583 230.845C284.353 231.92 281.816 232.785 278.97 233.44C276.135 234.094 272.674 234.421 268.586 234.421ZM315.554 234.421C311.944 234.421 308.748 233.673 305.966 232.177C303.173 230.682 301.007 228.681 299.468 226.176C297.928 223.68 297.158 220.889 297.158 217.804C297.158 214.719 297.928 211.928 299.468 209.432C301.007 206.927 303.173 204.926 305.966 203.431C308.748 201.935 311.944 201.187 315.554 201.187C319.217 201.187 322.429 201.935 325.189 203.431C327.95 204.926 330.1 206.927 331.64 209.432C333.179 211.928 333.949 214.719 333.949 217.804C333.949 220.889 333.179 223.68 331.64 226.176C330.1 228.681 327.95 230.682 325.189 232.177C322.429 233.673 319.217 234.421 315.554 234.421ZM316.509 231.126C318.314 231.126 319.79 230.565 320.937 229.443C322.073 228.321 322.906 226.849 323.437 225.026C323.968 223.203 324.234 221.263 324.234 219.206C324.234 216.682 323.905 214.284 323.246 212.013C322.577 209.75 321.553 207.918 320.172 206.516C318.792 205.113 316.987 204.412 314.757 204.412C312.952 204.412 311.466 204.973 310.298 206.095C309.13 207.217 308.27 208.689 307.718 210.512C307.155 212.335 306.874 214.275 306.874 216.332C306.874 218.856 307.208 221.24 307.877 223.483C308.535 225.727 309.581 227.559 311.015 228.98C312.448 230.411 314.28 231.126 316.509 231.126ZM360.945 233.72H340.479V232.598L345.655 230.354V209.46L340.718 206.025V205.324L353.3 201.187H354.016L354.733 207.357H355.131C356.405 205.581 357.547 204.249 358.556 203.36C359.564 202.472 360.536 201.888 361.47 201.608C362.394 201.327 363.334 201.187 364.289 201.187C364.714 201.187 365.192 201.257 365.723 201.397C366.253 201.537 366.731 201.678 367.156 201.818C368.749 202.285 369.545 202.94 369.545 203.781C369.545 204.155 369.465 204.552 369.306 204.973L367.474 209.11H366.917L364.448 208.268C363.705 208.035 363.057 207.881 362.505 207.806C361.943 207.74 361.316 207.708 360.626 207.708C358.396 207.708 356.459 208.666 354.813 210.582V230.354L360.945 232.598V233.72ZM392.24 233.72H373.128V232.598L378.305 230.354V209.18L373.367 206.025V205.324L385.949 201.187H386.746L387.462 206.375H387.861C389.825 204.693 391.72 203.407 393.546 202.519C395.383 201.631 397.47 201.187 399.805 201.187C402.991 201.187 405.603 201.911 407.641 203.36C409.691 204.81 410.715 206.913 410.715 209.671V230.354L415.891 232.598V233.72H396.779V232.598L401.478 230.354V212.686C401.478 210.909 400.867 209.54 399.646 208.577C398.425 207.623 396.833 207.147 394.868 207.147C393.647 207.147 392.347 207.334 390.966 207.708C389.586 208.082 388.445 208.596 387.542 209.25V230.354L392.24 232.598V233.72ZM438.826 234.421C433.517 234.421 429.307 233.042 426.196 230.284C423.096 227.527 421.545 223.857 421.545 219.276C421.545 215.724 422.395 212.592 424.094 209.881C425.792 207.17 428.033 205.043 430.815 203.501C433.607 201.958 436.702 201.187 440.1 201.187C444.347 201.187 447.665 202.472 450.054 205.043C452.443 207.614 453.664 211.237 453.717 215.911L453.399 216.262H430.464C430.464 218.365 430.889 220.291 431.738 222.039C432.588 223.796 433.968 225.199 435.879 226.246C437.79 227.302 440.312 227.83 443.444 227.83C444.931 227.83 446.524 227.643 448.222 227.269C449.921 226.896 451.7 226.264 453.558 225.376H453.797V226.358C452.523 228.648 450.585 230.565 447.984 232.107C445.382 233.65 442.33 234.421 438.826 234.421ZM438.507 204.342C436.384 204.342 434.632 205.113 433.251 206.656C431.871 208.198 430.995 210.349 430.624 213.106H445.993C445.515 209.881 444.639 207.614 443.365 206.305C442.091 204.996 440.471 204.342 438.507 204.342ZM480.936 233.72H460.47V232.598L465.646 230.354V209.46L460.709 206.025V205.324L473.291 201.187H474.008L474.724 207.357H475.122C476.397 205.581 477.538 204.249 478.547 203.36C479.555 202.472 480.527 201.888 481.461 201.608C482.385 201.327 483.325 201.187 484.28 201.187C484.705 201.187 485.183 201.257 485.714 201.397C486.245 201.537 486.722 201.678 487.147 201.818C488.74 202.285 489.536 202.94 489.536 203.781C489.536 204.155 489.456 204.552 489.297 204.973L487.466 209.11H486.908L484.44 208.268C483.696 208.035 483.049 207.881 482.497 207.806C481.934 207.74 481.307 207.708 480.617 207.708C478.387 207.708 476.45 208.666 474.804 210.582V230.354L480.936 232.598V233.72Z"/>
</mask>
<path d="M2.78688 245.85C2.09672 245.85 1.50213 245.7 1.00309 245.401C0.493443 245.093 0.238617 244.588 0.238617 243.887C0.238617 243.559 0.307632 243.083 0.445663 242.456C0.573076 241.821 0.822593 240.731 1.19421 239.189H1.75165C2.60106 239.376 3.26467 239.53 3.74247 239.652C4.22027 239.764 4.7777 239.82 5.41477 239.82C6.47654 239.82 7.39498 239.61 8.17007 239.189C8.93455 238.768 9.51852 237.871 9.922 236.497C10.3149 235.113 10.5113 233.019 10.5113 230.214V191.441L3.90174 188.566V187.445H27.1546V188.566L20.5451 191.441V216.682C20.5451 220.235 20.1734 223.53 19.4302 226.568C18.6869 229.607 17.7048 232.294 16.4838 234.631C15.2627 236.969 13.9355 238.838 12.5021 240.241C10.4316 242.251 8.70627 243.69 7.32596 244.56C5.94565 245.42 4.43263 245.85 2.78688 245.85ZM43.7979 234.421C41.2496 234.421 39.0836 233.743 37.2998 232.388C35.5267 231.032 34.6666 229.116 34.7197 226.638C34.7728 224.208 35.7019 222.207 37.5069 220.637C39.3119 219.075 42.6565 217.781 47.5407 216.752L55.0262 215.14V210.512C55.0262 208.783 54.3626 207.366 53.0353 206.263C51.7081 205.169 50.1155 204.623 48.2574 204.623C46.3993 204.623 45.0986 205.006 44.3553 205.772C43.6121 206.548 43.2405 207.661 43.2405 209.11V211.844L42.8423 212.125H38.0643C37.268 212.125 36.7106 211.985 36.392 211.704C36.0735 211.424 35.9142 210.863 35.9142 210.021C35.9142 207.824 37.5069 205.885 40.6922 204.202C42.3911 203.267 44.074 202.528 45.741 201.986C47.4186 201.453 49.1864 201.187 51.0445 201.187C53.3804 201.187 55.5571 201.467 57.5744 202.028C59.5918 202.589 61.211 203.477 62.432 204.693C63.6531 205.908 64.2636 207.544 64.2636 209.601V228.742C65.0069 229.49 66.3606 229.864 68.3249 229.864H70.9528L71.1917 230.074V230.775C70.5546 231.71 69.5725 232.551 68.2453 233.299C66.918 234.047 65.2192 234.421 63.1487 234.421C61.1314 234.421 59.4962 234.01 58.2433 233.187C57.0011 232.374 56.1145 231.266 55.5836 229.864H55.0262C53.6459 231.173 52.0001 232.257 50.0889 233.117C48.1777 233.986 46.0807 234.421 43.7979 234.421ZM43.4794 224.886C43.4794 226.381 43.9678 227.489 44.9446 228.209C45.9321 228.938 47.3018 229.303 49.0537 229.303C50.0624 229.303 51.0286 229.209 51.9523 229.022C52.8867 228.835 53.9113 228.532 55.0262 228.111V217.804C51.7347 218.365 49.266 218.982 47.6203 219.655C45.9745 220.337 44.8703 221.099 44.3076 221.941C43.7554 222.782 43.4794 223.764 43.4794 224.886ZM92.1352 234.421C88.7375 234.421 85.7645 233.79 83.2163 232.528C80.668 231.266 78.6878 229.499 77.2756 227.227C75.8741 224.965 75.1733 222.315 75.1733 219.276C75.1733 215.724 75.9962 212.592 77.642 209.881C79.2877 207.17 81.5546 205.043 84.4426 203.501C87.3413 201.958 90.6752 201.187 94.4445 201.187C96.7804 201.187 98.9677 201.5 101.006 202.126C103.056 202.762 104.584 203.594 105.593 204.623C106.443 205.511 106.867 206.212 106.867 206.726C106.867 207.38 106.522 207.941 105.832 208.409L102.408 211.003H101.85L99.0633 207.708C98.1607 206.632 97.2051 205.791 96.1965 205.183C95.1878 204.576 93.8871 204.272 92.2944 204.272C89.64 204.272 87.6067 205.324 86.1946 207.427C84.793 209.531 84.0922 212.382 84.0922 215.981C84.0922 218.084 84.501 220.038 85.3186 221.843C86.1468 223.638 87.474 225.082 89.3002 226.176C91.1371 227.279 93.5686 227.83 96.5946 227.83C98.0811 227.83 99.6738 227.643 101.373 227.269C103.071 226.896 104.876 226.264 106.788 225.376H107.027V226.358C105.752 228.602 103.825 230.504 101.245 232.065C98.6757 233.636 95.639 234.421 92.1352 234.421ZM132.891 233.72H113.142V232.598L118.319 230.354V189.127L113.381 185.692V184.991L126.76 181.134H127.556V215.56L139.819 205.955V205.534L135.917 203.01V201.888H152.083V203.01L146.986 205.464L135.201 213.527L150.411 230.214L155.507 232.598V233.72H142.049L139.342 230.074L127.556 216.963V230.495L132.891 232.598V233.72ZM184.334 233.72H161.081V232.598L167.691 229.723V191.441L161.081 188.566V187.445H184.334V188.566L177.725 191.441V229.723L184.334 232.598V233.72ZM210.932 233.72H191.82V232.598L196.996 230.354V209.18L192.059 206.025V205.324L204.641 201.187H205.437L206.154 206.375H206.552C208.516 204.693 210.412 203.407 212.238 202.519C214.075 201.631 216.161 201.187 218.497 201.187C221.682 201.187 224.294 201.911 226.333 203.36C228.382 204.81 229.407 206.913 229.407 209.671V230.354L234.583 232.598V233.72H215.471V232.598L220.169 230.354V212.686C220.169 210.909 219.559 209.54 218.338 208.577C217.117 207.623 215.524 207.147 213.56 207.147C212.339 207.147 211.038 207.334 209.658 207.708C208.277 208.082 207.136 208.596 206.233 209.25V230.354L210.932 232.598V233.72ZM268.586 234.421C263.065 234.421 258.271 233.44 254.204 231.476C250.148 229.513 247.006 226.811 244.776 223.371C242.546 219.94 241.431 216.051 241.431 211.704C241.431 208.292 242.201 205.076 243.741 202.056C245.28 199.046 247.377 196.396 250.032 194.105C252.686 191.815 255.712 190.015 259.11 188.707C262.507 187.398 266.091 186.743 269.86 186.743C272.568 186.743 274.861 186.893 276.741 187.192C278.631 187.501 280.303 187.898 281.757 188.384C283.223 188.88 284.699 189.454 286.185 190.109L286.902 202.87H285.468L279.098 193.054C277.452 192.072 275.965 191.357 274.638 190.908C273.311 190.469 271.771 190.249 270.02 190.249C266.569 190.249 263.463 191.09 260.702 192.773C257.942 194.456 255.765 196.816 254.173 199.855C252.58 202.893 251.784 206.399 251.784 210.372C251.784 214.626 252.553 218.271 254.093 221.31C255.632 224.348 257.714 226.685 260.336 228.321C262.969 229.957 265.905 230.775 269.144 230.775C271.533 230.775 273.587 230.495 275.307 229.934C277.038 229.373 278.646 228.695 280.133 227.9L286.265 219.276H287.618L286.583 230.845C284.353 231.92 281.816 232.785 278.97 233.44C276.135 234.094 272.674 234.421 268.586 234.421ZM315.554 234.421C311.944 234.421 308.748 233.673 305.966 232.177C303.173 230.682 301.007 228.681 299.468 226.176C297.928 223.68 297.158 220.889 297.158 217.804C297.158 214.719 297.928 211.928 299.468 209.432C301.007 206.927 303.173 204.926 305.966 203.431C308.748 201.935 311.944 201.187 315.554 201.187C319.217 201.187 322.429 201.935 325.189 203.431C327.95 204.926 330.1 206.927 331.64 209.432C333.179 211.928 333.949 214.719 333.949 217.804C333.949 220.889 333.179 223.68 331.64 226.176C330.1 228.681 327.95 230.682 325.189 232.177C322.429 233.673 319.217 234.421 315.554 234.421ZM316.509 231.126C318.314 231.126 319.79 230.565 320.937 229.443C322.073 228.321 322.906 226.849 323.437 225.026C323.968 223.203 324.234 221.263 324.234 219.206C324.234 216.682 323.905 214.284 323.246 212.013C322.577 209.75 321.553 207.918 320.172 206.516C318.792 205.113 316.987 204.412 314.757 204.412C312.952 204.412 311.466 204.973 310.298 206.095C309.13 207.217 308.27 208.689 307.718 210.512C307.155 212.335 306.874 214.275 306.874 216.332C306.874 218.856 307.208 221.24 307.877 223.483C308.535 225.727 309.581 227.559 311.015 228.98C312.448 230.411 314.28 231.126 316.509 231.126ZM360.945 233.72H340.479V232.598L345.655 230.354V209.46L340.718 206.025V205.324L353.3 201.187H354.016L354.733 207.357H355.131C356.405 205.581 357.547 204.249 358.556 203.36C359.564 202.472 360.536 201.888 361.47 201.608C362.394 201.327 363.334 201.187 364.289 201.187C364.714 201.187 365.192 201.257 365.723 201.397C366.253 201.537 366.731 201.678 367.156 201.818C368.749 202.285 369.545 202.94 369.545 203.781C369.545 204.155 369.465 204.552 369.306 204.973L367.474 209.11H366.917L364.448 208.268C363.705 208.035 363.057 207.881 362.505 207.806C361.943 207.74 361.316 207.708 360.626 207.708C358.396 207.708 356.459 208.666 354.813 210.582V230.354L360.945 232.598V233.72ZM392.24 233.72H373.128V232.598L378.305 230.354V209.18L373.367 206.025V205.324L385.949 201.187H386.746L387.462 206.375H387.861C389.825 204.693 391.72 203.407 393.546 202.519C395.383 201.631 397.47 201.187 399.805 201.187C402.991 201.187 405.603 201.911 407.641 203.36C409.691 204.81 410.715 206.913 410.715 209.671V230.354L415.891 232.598V233.72H396.779V232.598L401.478 230.354V212.686C401.478 210.909 400.867 209.54 399.646 208.577C398.425 207.623 396.833 207.147 394.868 207.147C393.647 207.147 392.347 207.334 390.966 207.708C389.586 208.082 388.445 208.596 387.542 209.25V230.354L392.24 232.598V233.72ZM438.826 234.421C433.517 234.421 429.307 233.042 426.196 230.284C423.096 227.527 421.545 223.857 421.545 219.276C421.545 215.724 422.395 212.592 424.094 209.881C425.792 207.17 428.033 205.043 430.815 203.501C433.607 201.958 436.702 201.187 440.1 201.187C444.347 201.187 447.665 202.472 450.054 205.043C452.443 207.614 453.664 211.237 453.717 215.911L453.399 216.262H430.464C430.464 218.365 430.889 220.291 431.738 222.039C432.588 223.796 433.968 225.199 435.879 226.246C437.79 227.302 440.312 227.83 443.444 227.83C444.931 227.83 446.524 227.643 448.222 227.269C449.921 226.896 451.7 226.264 453.558 225.376H453.797V226.358C452.523 228.648 450.585 230.565 447.984 232.107C445.382 233.65 442.33 234.421 438.826 234.421ZM438.507 204.342C436.384 204.342 434.632 205.113 433.251 206.656C431.871 208.198 430.995 210.349 430.624 213.106H445.993C445.515 209.881 444.639 207.614 443.365 206.305C442.091 204.996 440.471 204.342 438.507 204.342ZM480.936 233.72H460.47V232.598L465.646 230.354V209.46L460.709 206.025V205.324L473.291 201.187H474.008L474.724 207.357H475.122C476.397 205.581 477.538 204.249 478.547 203.36C479.555 202.472 480.527 201.888 481.461 201.608C482.385 201.327 483.325 201.187 484.28 201.187C484.705 201.187 485.183 201.257 485.714 201.397C486.245 201.537 486.722 201.678 487.147 201.818C488.74 202.285 489.536 202.94 489.536 203.781C489.536 204.155 489.456 204.552 489.297 204.973L487.466 209.11H486.908L484.44 208.268C483.696 208.035 483.049 207.881 482.497 207.806C481.934 207.74 481.307 207.708 480.617 207.708C478.387 207.708 476.45 208.666 474.804 210.582V230.354L480.936 232.598V233.72Z" fill="#FF851B" stroke="white" stroke-width="3" mask="url(#path-1-inside-1_501_3)"/>
</g>
</g>
<g clip-path="url(#clip7_501_3)">
<g clip-path="url(#clip8_501_3)">
<mask id="path-2-inside-2_501_3" fill="white">
<path d="M0.21463 291.724V291.069L3.19324 290.413V262.439L0.21463 261.783V261.128H26.7739V268.995H25.2846C24.6557 268.558 24.1097 268.005 23.6463 267.334C22.5873 265.761 22.0577 264.056 22.0577 262.22H11.3844V275.989H17.0934C17.3251 274.882 17.7553 273.847 18.3841 272.885C18.6489 272.448 18.9633 272.026 19.3273 271.618H20.8167V281.452H19.3273C18.9633 281.045 18.6489 280.622 18.3841 280.185C17.7553 279.223 17.3251 278.189 17.0934 277.082H11.3844V290.631H23.0506C23.0506 288.796 23.5801 287.091 24.6392 285.517C25.1025 284.847 25.6486 284.294 26.2774 283.857H27.7667V291.724H0.21463ZM36.365 291.724V291.069L39.3436 290.413V271.181L36.365 270.525V269.869H40.8329C42.7855 269.869 44.3245 270.423 45.4497 271.53C45.88 271.968 46.244 272.507 46.5419 273.148C47.0052 272.39 47.5513 271.734 48.1801 271.181C49.6694 269.869 51.5228 269.214 53.7402 269.214C55.5935 269.214 57.2549 269.555 58.7244 270.237C60.2004 270.924 61.3522 271.822 62.1796 272.929C63.0069 274.036 63.4206 275.202 63.4206 276.426V290.413L66.3993 291.069V291.724H59.9456C56.967 291.724 55.4777 290.413 55.4777 287.79V276.426C55.4777 274.59 55.1037 273.183 54.3558 272.204C53.6144 271.23 52.7473 270.744 51.7544 270.744C50.4968 270.744 49.3716 271.326 48.3787 272.492C47.9484 272.987 47.5844 273.57 47.2865 274.24V290.413L50.2651 291.069V291.724H36.365ZM73.7465 301.122C71.2643 301.122 69.444 300.757 68.2857 300.029C67.1273 299.301 66.5482 298.281 66.5482 296.969C66.5482 295.979 66.8891 295.186 67.5708 294.592C68.246 293.991 69.1462 293.691 70.2714 293.691C70.5362 293.691 70.801 293.714 71.0657 293.761C71.3305 293.802 71.5125 293.822 71.6118 293.822L72.2572 293.91V300.029L72.555 300.16C72.886 300.218 73.1177 300.248 73.25 300.248C74.276 300.248 75.1133 299.703 75.762 298.613C76.404 297.517 76.7251 295.658 76.7251 293.035V271.181L73.7465 270.525V269.869H80.2001C83.1787 269.869 84.668 271.181 84.668 273.803V293.035C84.668 294.58 84.2378 295.964 83.3773 297.188C82.5168 298.412 81.2592 299.373 79.6044 300.073C77.9496 300.772 75.997 301.122 73.7465 301.122ZM80.2001 267.247C79.2072 267.247 78.3799 266.956 77.7179 266.373C77.056 265.79 76.7251 265.061 76.7251 264.187C76.7251 263.313 77.056 262.585 77.7179 262.002C78.3799 261.419 79.2072 261.128 80.2001 261.128C81.193 261.128 82.0204 261.419 82.6823 262.002C83.3442 262.585 83.6752 263.313 83.6752 264.187C83.6752 265.061 83.3442 265.79 82.6823 266.373C82.0204 266.956 81.193 267.247 80.2001 267.247ZM108.159 292.38C104.055 292.38 100.839 291.351 98.5086 289.294C96.1721 287.243 95.0038 284.41 95.0038 280.797C95.0038 277.184 96.1721 274.348 98.5086 272.291C100.839 270.24 104.055 269.214 108.159 269.214C112.263 269.214 115.483 270.24 117.82 272.291C120.15 274.348 121.315 277.184 121.315 280.797C121.315 284.41 120.15 287.243 117.82 289.294C115.483 291.351 112.263 292.38 108.159 292.38ZM108.159 291.506C109.483 291.506 110.602 290.69 111.515 289.058C112.422 287.426 112.875 284.672 112.875 280.797C112.875 276.921 112.422 274.168 111.515 272.536C110.602 270.904 109.483 270.088 108.159 270.088C106.835 270.088 105.72 270.904 104.813 272.536C103.9 274.168 103.443 276.921 103.443 280.797C103.443 284.672 103.9 287.426 104.813 289.058C105.72 290.69 106.835 291.506 108.159 291.506ZM135.374 301.122C133.885 301.122 132.726 300.772 131.899 300.073C131.071 299.373 130.658 298.412 130.658 297.188C130.658 296.081 130.995 295.221 131.67 294.609C132.352 293.997 133.256 293.691 134.381 293.691C134.646 293.691 134.91 293.714 135.175 293.761C135.44 293.802 135.622 293.822 135.721 293.822L136.367 293.91V299.81C137.326 299.665 138.17 299.199 138.899 298.412C139.627 297.625 140.437 296.27 141.331 294.347L142.324 292.161L129.417 271.181L126.934 270.525V269.869H133.14C134.861 269.869 136.224 270.181 137.23 270.805C138.243 271.434 139.114 272.361 139.842 273.585L146.047 283.682L151.26 271.836L147.536 270.525V269.869H156.721V270.525L152.749 271.836L142.82 294.347C141.761 296.736 140.636 298.464 139.445 299.531C138.253 300.591 136.896 301.122 135.374 301.122ZM186.318 301.122C184.829 301.122 183.67 300.772 182.843 300.073C182.015 299.373 181.602 298.412 181.602 297.188C181.602 296.081 181.943 295.221 182.624 294.609C183.3 293.997 184.2 293.691 185.325 293.691C185.59 293.691 185.855 293.714 186.119 293.761C186.384 293.802 186.566 293.822 186.665 293.822L187.311 293.91V299.81C188.271 299.665 189.114 299.199 189.843 298.412C190.571 297.625 191.382 296.27 192.275 294.347L193.268 292.161L180.361 271.181L177.879 270.525V269.869H184.084C185.805 269.869 187.172 270.181 188.185 270.805C189.191 271.434 190.058 272.361 190.786 273.585L196.991 283.682L202.204 271.836L198.481 270.525V269.869H207.665V270.525L203.693 271.836L193.764 294.347C192.705 296.736 191.58 298.464 190.389 299.531C189.197 300.591 187.84 301.122 186.318 301.122ZM225.447 292.38C221.343 292.38 218.126 291.351 215.796 289.294C213.46 287.243 212.291 284.41 212.291 280.797C212.291 277.184 213.46 274.348 215.796 272.291C218.126 270.24 221.343 269.214 225.447 269.214C229.551 269.214 232.771 270.24 235.107 272.291C237.437 274.348 238.602 277.184 238.602 280.797C238.602 284.41 237.437 287.243 235.107 289.294C232.771 291.351 229.551 292.38 225.447 292.38ZM225.447 291.506C226.771 291.506 227.889 290.69 228.803 289.058C229.71 287.426 230.163 284.672 230.163 280.797C230.163 276.921 229.71 274.168 228.803 272.536C227.889 270.904 226.771 270.088 225.447 270.088C224.123 270.088 223.008 270.904 222.101 272.536C221.187 274.168 220.731 276.921 220.731 280.797C220.731 284.672 221.187 287.426 222.101 289.058C223.008 290.69 224.123 291.506 225.447 291.506ZM259.115 292.38C257.262 292.38 255.597 292.036 254.121 291.348C252.651 290.666 251.503 289.772 250.676 288.665C249.848 287.557 249.435 286.392 249.435 285.168V271.181L246.456 270.525V269.869H252.91C255.888 269.869 257.378 271.181 257.378 273.803V285.168C257.378 287.004 257.748 288.408 258.49 289.381C259.237 290.36 260.108 290.85 261.101 290.85C262.325 290.85 263.434 290.267 264.427 289.102C264.791 288.665 265.172 288.082 265.569 287.353V271.181L262.59 270.525V269.869H276.49V270.525L273.512 271.181V291.943H273.015C270.599 291.943 268.762 291.36 267.505 290.194C266.942 289.67 266.545 289.087 266.313 288.446C265.85 289.174 265.304 289.83 264.675 290.413C263.186 291.724 261.332 292.38 259.115 292.38ZM284.096 291.724V291.069L287.074 290.413V271.181L284.096 270.525V269.869H288.564C290.516 269.869 292.055 270.423 293.18 271.53C293.611 271.968 293.975 272.507 294.273 273.148C294.769 272.507 295.381 271.924 296.109 271.399C297.764 270.234 299.617 269.651 301.669 269.651C303.423 269.651 304.737 270.006 305.611 270.717C306.491 271.434 306.932 272.463 306.932 273.803C306.932 274.794 306.591 275.587 305.909 276.181C305.234 276.781 304.334 277.082 303.208 277.082C302.745 277.082 302.282 277.052 301.818 276.994L301.223 276.863V270.744C299.535 270.744 297.996 271.326 296.606 272.492C295.944 273.075 295.414 273.658 295.017 274.24V290.413L297.996 291.069V291.724H284.096ZM332.806 291.724V291.069L335.784 290.413V262.439L332.806 261.783V261.128H345.465C351.389 261.128 355.933 262.468 359.097 265.149C362.254 267.83 363.833 271.589 363.833 276.426C363.833 281.263 362.254 285.022 359.097 287.703C355.933 290.384 351.389 291.724 345.465 291.724H332.806ZM343.976 290.631H345.465C348.543 290.631 350.926 289.53 352.613 287.327C354.301 285.13 355.145 281.496 355.145 276.426C355.145 271.356 354.301 267.719 352.613 265.516C350.926 263.319 348.543 262.22 345.465 262.22H343.976V290.631ZM372.431 291.724V291.069L375.41 290.413V271.181L372.431 270.525V269.869H376.899C378.852 269.869 380.391 270.423 381.516 271.53C381.946 271.968 382.31 272.507 382.608 273.148C383.104 272.507 383.717 271.924 384.445 271.399C386.1 270.234 387.953 269.651 390.005 269.651C391.759 269.651 393.073 270.006 393.947 270.717C394.827 271.434 395.267 272.463 395.267 273.803C395.267 274.794 394.926 275.587 394.244 276.181C393.569 276.781 392.669 277.082 391.544 277.082C391.081 277.082 390.617 277.052 390.154 276.994L389.558 276.863V270.744C387.87 270.744 386.331 271.326 384.941 272.492C384.279 273.075 383.75 273.658 383.353 274.24V290.413L386.331 291.069V291.724H372.431ZM402.118 291.724V291.069L405.097 290.413V271.181L402.118 270.525V269.869H408.572C411.55 269.869 413.039 271.181 413.039 273.803V290.413L416.018 291.069V291.724H402.118ZM408.572 267.247C407.579 267.247 406.751 266.956 406.089 266.373C405.427 265.79 405.097 265.061 405.097 264.187C405.097 263.313 405.427 262.585 406.089 262.002C406.751 261.419 407.579 261.128 408.572 261.128C409.564 261.128 410.392 261.419 411.054 262.002C411.716 262.585 412.047 263.313 412.047 264.187C412.047 265.061 411.716 265.79 411.054 266.373C410.392 266.956 409.564 267.247 408.572 267.247ZM423.623 291.724V291.069L426.602 290.413V271.181L423.623 270.525V269.869H428.091C430.044 269.869 431.583 270.423 432.708 271.53C433.138 271.968 433.502 272.507 433.8 273.148C434.264 272.39 434.81 271.734 435.439 271.181C436.928 269.869 438.781 269.214 440.999 269.214C442.852 269.214 444.517 269.555 445.993 270.237C447.462 270.924 448.611 271.822 449.438 272.929C450.265 274.036 450.679 275.202 450.679 276.426V290.413L453.658 291.069V291.724H447.204C444.225 291.724 442.736 290.413 442.736 287.79V276.426C442.736 274.59 442.365 273.183 441.624 272.204C440.876 271.23 440.006 270.744 439.013 270.744C437.755 270.744 436.63 271.326 435.637 272.492C435.207 272.987 434.843 273.57 434.545 274.24V290.413L437.524 291.069V291.724H423.623ZM461.263 291.724V291.069L464.242 290.413V262.439L461.263 261.783V261.128H467.717C470.695 261.128 472.185 262.439 472.185 265.061V280.36L481.369 271.836L477.645 270.525V269.869H487.078V270.525L483.106 271.836L477.397 277.082L487.078 290.413L489.56 291.069V291.724H483.106C481.518 291.724 480.227 291.418 479.234 290.806C478.241 290.194 477.298 289.262 476.404 288.009L472.185 282.108V290.413L475.163 291.069V291.724H461.263Z"/>
</mask>
<path d="M0.21463 291.724V291.069L3.19324 290.413V262.439L0.21463 261.783V261.128H26.7739V268.995H25.2846C24.6557 268.558 24.1097 268.005 23.6463 267.334C22.5873 265.761 22.0577 264.056 22.0577 262.22H11.3844V275.989H17.0934C17.3251 274.882 17.7553 273.847 18.3841 272.885C18.6489 272.448 18.9633 272.026 19.3273 271.618H20.8167V281.452H19.3273C18.9633 281.045 18.6489 280.622 18.3841 280.185C17.7553 279.223 17.3251 278.189 17.0934 277.082H11.3844V290.631H23.0506C23.0506 288.796 23.5801 287.091 24.6392 285.517C25.1025 284.847 25.6486 284.294 26.2774 283.857H27.7667V291.724H0.21463ZM36.365 291.724V291.069L39.3436 290.413V271.181L36.365 270.525V269.869H40.8329C42.7855 269.869 44.3245 270.423 45.4497 271.53C45.88 271.968 46.244 272.507 46.5419 273.148C47.0052 272.39 47.5513 271.734 48.1801 271.181C49.6694 269.869 51.5228 269.214 53.7402 269.214C55.5935 269.214 57.2549 269.555 58.7244 270.237C60.2004 270.924 61.3522 271.822 62.1796 272.929C63.0069 274.036 63.4206 275.202 63.4206 276.426V290.413L66.3993 291.069V291.724H59.9456C56.967 291.724 55.4777 290.413 55.4777 287.79V276.426C55.4777 274.59 55.1037 273.183 54.3558 272.204C53.6144 271.23 52.7473 270.744 51.7544 270.744C50.4968 270.744 49.3716 271.326 48.3787 272.492C47.9484 272.987 47.5844 273.57 47.2865 274.24V290.413L50.2651 291.069V291.724H36.365ZM73.7465 301.122C71.2643 301.122 69.444 300.757 68.2857 300.029C67.1273 299.301 66.5482 298.281 66.5482 296.969C66.5482 295.979 66.8891 295.186 67.5708 294.592C68.246 293.991 69.1462 293.691 70.2714 293.691C70.5362 293.691 70.801 293.714 71.0657 293.761C71.3305 293.802 71.5125 293.822 71.6118 293.822L72.2572 293.91V300.029L72.555 300.16C72.886 300.218 73.1177 300.248 73.25 300.248C74.276 300.248 75.1133 299.703 75.762 298.613C76.404 297.517 76.7251 295.658 76.7251 293.035V271.181L73.7465 270.525V269.869H80.2001C83.1787 269.869 84.668 271.181 84.668 273.803V293.035C84.668 294.58 84.2378 295.964 83.3773 297.188C82.5168 298.412 81.2592 299.373 79.6044 300.073C77.9496 300.772 75.997 301.122 73.7465 301.122ZM80.2001 267.247C79.2072 267.247 78.3799 266.956 77.7179 266.373C77.056 265.79 76.7251 265.061 76.7251 264.187C76.7251 263.313 77.056 262.585 77.7179 262.002C78.3799 261.419 79.2072 261.128 80.2001 261.128C81.193 261.128 82.0204 261.419 82.6823 262.002C83.3442 262.585 83.6752 263.313 83.6752 264.187C83.6752 265.061 83.3442 265.79 82.6823 266.373C82.0204 266.956 81.193 267.247 80.2001 267.247ZM108.159 292.38C104.055 292.38 100.839 291.351 98.5086 289.294C96.1721 287.243 95.0038 284.41 95.0038 280.797C95.0038 277.184 96.1721 274.348 98.5086 272.291C100.839 270.24 104.055 269.214 108.159 269.214C112.263 269.214 115.483 270.24 117.82 272.291C120.15 274.348 121.315 277.184 121.315 280.797C121.315 284.41 120.15 287.243 117.82 289.294C115.483 291.351 112.263 292.38 108.159 292.38ZM108.159 291.506C109.483 291.506 110.602 290.69 111.515 289.058C112.422 287.426 112.875 284.672 112.875 280.797C112.875 276.921 112.422 274.168 111.515 272.536C110.602 270.904 109.483 270.088 108.159 270.088C106.835 270.088 105.72 270.904 104.813 272.536C103.9 274.168 103.443 276.921 103.443 280.797C103.443 284.672 103.9 287.426 104.813 289.058C105.72 290.69 106.835 291.506 108.159 291.506ZM135.374 301.122C133.885 301.122 132.726 300.772 131.899 300.073C131.071 299.373 130.658 298.412 130.658 297.188C130.658 296.081 130.995 295.221 131.67 294.609C132.352 293.997 133.256 293.691 134.381 293.691C134.646 293.691 134.91 293.714 135.175 293.761C135.44 293.802 135.622 293.822 135.721 293.822L136.367 293.91V299.81C137.326 299.665 138.17 299.199 138.899 298.412C139.627 297.625 140.437 296.27 141.331 294.347L142.324 292.161L129.417 271.181L126.934 270.525V269.869H133.14C134.861 269.869 136.224 270.181 137.23 270.805C138.243 271.434 139.114 272.361 139.842 273.585L146.047 283.682L151.26 271.836L147.536 270.525V269.869H156.721V270.525L152.749 271.836L142.82 294.347C141.761 296.736 140.636 298.464 139.445 299.531C138.253 300.591 136.896 301.122 135.374 301.122ZM186.318 301.122C184.829 301.122 183.67 300.772 182.843 300.073C182.015 299.373 181.602 298.412 181.602 297.188C181.602 296.081 181.943 295.221 182.624 294.609C183.3 293.997 184.2 293.691 185.325 293.691C185.59 293.691 185.855 293.714 186.119 293.761C186.384 293.802 186.566 293.822 186.665 293.822L187.311 293.91V299.81C188.271 299.665 189.114 299.199 189.843 298.412C190.571 297.625 191.382 296.27 192.275 294.347L193.268 292.161L180.361 271.181L177.879 270.525V269.869H184.084C185.805 269.869 187.172 270.181 188.185 270.805C189.191 271.434 190.058 272.361 190.786 273.585L196.991 283.682L202.204 271.836L198.481 270.525V269.869H207.665V270.525L203.693 271.836L193.764 294.347C192.705 296.736 191.58 298.464 190.389 299.531C189.197 300.591 187.84 301.122 186.318 301.122ZM225.447 292.38C221.343 292.38 218.126 291.351 215.796 289.294C213.46 287.243 212.291 284.41 212.291 280.797C212.291 277.184 213.46 274.348 215.796 272.291C218.126 270.24 221.343 269.214 225.447 269.214C229.551 269.214 232.771 270.24 235.107 272.291C237.437 274.348 238.602 277.184 238.602 280.797C238.602 284.41 237.437 287.243 235.107 289.294C232.771 291.351 229.551 292.38 225.447 292.38ZM225.447 291.506C226.771 291.506 227.889 290.69 228.803 289.058C229.71 287.426 230.163 284.672 230.163 280.797C230.163 276.921 229.71 274.168 228.803 272.536C227.889 270.904 226.771 270.088 225.447 270.088C224.123 270.088 223.008 270.904 222.101 272.536C221.187 274.168 220.731 276.921 220.731 280.797C220.731 284.672 221.187 287.426 222.101 289.058C223.008 290.69 224.123 291.506 225.447 291.506ZM259.115 292.38C257.262 292.38 255.597 292.036 254.121 291.348C252.651 290.666 251.503 289.772 250.676 288.665C249.848 287.557 249.435 286.392 249.435 285.168V271.181L246.456 270.525V269.869H252.91C255.888 269.869 257.378 271.181 257.378 273.803V285.168C257.378 287.004 257.748 288.408 258.49 289.381C259.237 290.36 260.108 290.85 261.101 290.85C262.325 290.85 263.434 290.267 264.427 289.102C264.791 288.665 265.172 288.082 265.569 287.353V271.181L262.59 270.525V269.869H276.49V270.525L273.512 271.181V291.943H273.015C270.599 291.943 268.762 291.36 267.505 290.194C266.942 289.67 266.545 289.087 266.313 288.446C265.85 289.174 265.304 289.83 264.675 290.413C263.186 291.724 261.332 292.38 259.115 292.38ZM284.096 291.724V291.069L287.074 290.413V271.181L284.096 270.525V269.869H288.564C290.516 269.869 292.055 270.423 293.18 271.53C293.611 271.968 293.975 272.507 294.273 273.148C294.769 272.507 295.381 271.924 296.109 271.399C297.764 270.234 299.617 269.651 301.669 269.651C303.423 269.651 304.737 270.006 305.611 270.717C306.491 271.434 306.932 272.463 306.932 273.803C306.932 274.794 306.591 275.587 305.909 276.181C305.234 276.781 304.334 277.082 303.208 277.082C302.745 277.082 302.282 277.052 301.818 276.994L301.223 276.863V270.744C299.535 270.744 297.996 271.326 296.606 272.492C295.944 273.075 295.414 273.658 295.017 274.24V290.413L297.996 291.069V291.724H284.096ZM332.806 291.724V291.069L335.784 290.413V262.439L332.806 261.783V261.128H345.465C351.389 261.128 355.933 262.468 359.097 265.149C362.254 267.83 363.833 271.589 363.833 276.426C363.833 281.263 362.254 285.022 359.097 287.703C355.933 290.384 351.389 291.724 345.465 291.724H332.806ZM343.976 290.631H345.465C348.543 290.631 350.926 289.53 352.613 287.327C354.301 285.13 355.145 281.496 355.145 276.426C355.145 271.356 354.301 267.719 352.613 265.516C350.926 263.319 348.543 262.22 345.465 262.22H343.976V290.631ZM372.431 291.724V291.069L375.41 290.413V271.181L372.431 270.525V269.869H376.899C378.852 269.869 380.391 270.423 381.516 271.53C381.946 271.968 382.31 272.507 382.608 273.148C383.104 272.507 383.717 271.924 384.445 271.399C386.1 270.234 387.953 269.651 390.005 269.651C391.759 269.651 393.073 270.006 393.947 270.717C394.827 271.434 395.267 272.463 395.267 273.803C395.267 274.794 394.926 275.587 394.244 276.181C393.569 276.781 392.669 277.082 391.544 277.082C391.081 277.082 390.617 277.052 390.154 276.994L389.558 276.863V270.744C387.87 270.744 386.331 271.326 384.941 272.492C384.279 273.075 383.75 273.658 383.353 274.24V290.413L386.331 291.069V291.724H372.431ZM402.118 291.724V291.069L405.097 290.413V271.181L402.118 270.525V269.869H408.572C411.55 269.869 413.039 271.181 413.039 273.803V290.413L416.018 291.069V291.724H402.118ZM408.572 267.247C407.579 267.247 406.751 266.956 406.089 266.373C405.427 265.79 405.097 265.061 405.097 264.187C405.097 263.313 405.427 262.585 406.089 262.002C406.751 261.419 407.579 261.128 408.572 261.128C409.564 261.128 410.392 261.419 411.054 262.002C411.716 262.585 412.047 263.313 412.047 264.187C412.047 265.061 411.716 265.79 411.054 266.373C410.392 266.956 409.564 267.247 408.572 267.247ZM423.623 291.724V291.069L426.602 290.413V271.181L423.623 270.525V269.869H428.091C430.044 269.869 431.583 270.423 432.708 271.53C433.138 271.968 433.502 272.507 433.8 273.148C434.264 272.39 434.81 271.734 435.439 271.181C436.928 269.869 438.781 269.214 440.999 269.214C442.852 269.214 444.517 269.555 445.993 270.237C447.462 270.924 448.611 271.822 449.438 272.929C450.265 274.036 450.679 275.202 450.679 276.426V290.413L453.658 291.069V291.724H447.204C444.225 291.724 442.736 290.413 442.736 287.79V276.426C442.736 274.59 442.365 273.183 441.624 272.204C440.876 271.23 440.006 270.744 439.013 270.744C437.755 270.744 436.63 271.326 435.637 272.492C435.207 272.987 434.843 273.57 434.545 274.24V290.413L437.524 291.069V291.724H423.623ZM461.263 291.724V291.069L464.242 290.413V262.439L461.263 261.783V261.128H467.717C470.695 261.128 472.185 262.439 472.185 265.061V280.36L481.369 271.836L477.645 270.525V269.869H487.078V270.525L483.106 271.836L477.397 277.082L487.078 290.413L489.56 291.069V291.724H483.106C481.518 291.724 480.227 291.418 479.234 290.806C478.241 290.194 477.298 289.262 476.404 288.009L472.185 282.108V290.413L475.163 291.069V291.724H461.263Z" fill="#CA3433" stroke="black" stroke-opacity="0.58" stroke-width="2" mask="url(#path-2-inside-2_501_3)"/>
</g>
</g>
</g>
</g>
<g clip-path="url(#clip9_501_3)">
<g clip-path="url(#clip10_501_3)">
<path d="M256.391 145.704V146.454H257.141H302.419C306.028 146.461 308.676 147.662 310.421 149.397C312.173 151.139 313.059 153.463 313.066 155.794C313.074 158.124 312.202 160.444 310.456 162.18C308.717 163.91 306.063 165.106 302.421 165.106H189.716C186.049 165.106 183.368 163.909 181.606 162.177C179.839 160.439 178.952 158.12 178.952 155.792C178.952 153.464 179.839 151.142 181.607 149.4C183.369 147.664 186.05 146.462 189.717 146.454H234.127H234.877V145.704V88.4205V88.123L234.673 87.9064L152.644 0.78363H337.158L256.589 88.3521L256.391 88.5674V88.8599V145.704ZM259.882 36.3036H259.881C251.516 36.307 244.558 42.3034 244.573 49.8717C244.558 57.4899 251.51 63.4827 259.882 63.4365C268.258 63.4827 275.218 57.4901 275.18 49.8715C275.216 42.3016 268.253 36.307 259.882 36.3036Z" fill="#CA3433" stroke="black" stroke-width="1.5"/>
</g>
</g>
<path d="M463.714 158.931H348.765V164.767H463.714V158.931Z" fill="#CA3433"/>
<path d="M141.009 158.931H26.0604V164.767H141.009V158.931Z" fill="#CA3433"/>
<path d="M463.714 147.259H348.765V153.095H463.714V147.259Z" fill="#CA3433"/>
<path d="M141.009 147.259H26.0604V153.095H141.009V147.259Z" fill="#CA3433"/>
</g>
</g>
</g>
<defs>
<clipPath id="clip0_501_3">
<rect width="490.225" height="300.845" fill="white" transform="translate(-0.225464 0.155457)"/>
</clipPath>
<clipPath id="clip1_501_3">
<rect width="489.345" height="301.088" fill="white" transform="translate(0.21463 0.0336304)"/>
</clipPath>
<clipPath id="clip2_501_3">
<rect width="489.345" height="301.088" fill="white" transform="translate(0.21463 0.0336304)"/>
</clipPath>
<clipPath id="clip3_501_3">
<rect width="489.345" height="119.988" fill="white" transform="translate(0.21463 181.134)"/>
</clipPath>
<clipPath id="clip4_501_3">
<rect width="489.345" height="119.988" fill="white" transform="translate(0.21463 181.134)"/>
</clipPath>
<clipPath id="clip5_501_3">
<rect width="489.345" height="64.7156" fill="white" transform="translate(0.21463 181.134)"/>
</clipPath>
<clipPath id="clip6_501_3">
<rect width="489.345" height="64.7156" fill="white" transform="translate(0.21463 181.134)"/>
</clipPath>
<clipPath id="clip7_501_3">
<rect width="489.345" height="39.9942" fill="white" transform="translate(0.21463 261.128)"/>
</clipPath>
<clipPath id="clip8_501_3">
<rect width="489.345" height="39.9942" fill="white" transform="translate(0.21463 261.128)"/>
</clipPath>
<clipPath id="clip9_501_3">
<rect width="207.756" height="165.823" fill="white" transform="translate(141.009 0.0336304)"/>
</clipPath>
<clipPath id="clip10_501_3">
<rect width="187.96" height="165.823" fill="white" transform="translate(150.907 0.0336304)"/>
</clipPath>
</defs>
</svg>
